<svg xmlns="http://www.w3.org/2000/svg" style="display: none;">
  
    <symbol id="icon-angle-right" viewBox="0 0 512 512">
      <path d="m335 274c0 3-1 5-3 7l-133 133c-2 2-5 3-7 3-2 0-5-1-7-3l-14-14c-2-2-3-4-3-7 0-2 1-5 3-6l112-113-112-112c-2-2-3-4-3-7 0-2 1-4 3-6l14-14c2-2 5-3 7-3 2 0 5 1 7 3l133 133c2 2 3 4 3 6z"/>
    </symbol>
  
    <symbol id="icon-angle-left" viewBox="0 0 512 512">
      <path d="m344 155c0 3-1 5-3 7l-112 112 112 113c2 1 3 4 3 6 0 3-1 5-3 7l-14 14c-2 2-5 3-7 3-2 0-5-1-7-3l-133-133c-2-2-3-4-3-7 0-2 1-4 3-6l133-133c2-2 5-3 7-3 2 0 5 1 7 3l14 14c2 2 3 4 3 6z"/>
    </symbol>
  
    <symbol id="icon-paper-plane-o" viewBox="0 0 512 512">
      <path d="m504 3c6 5 9 11 8 18l-73 439c-1 6-4 10-10 13-2 2-5 2-8 2-3 0-5 0-7-1l-151-61-85 93c-3 4-8 6-13 6-3 0-5 0-7-1-4-1-6-4-9-7-2-3-3-6-3-10l0-129-135-56c-7-2-10-7-11-15-1-8 2-13 9-17l476-274c6-4 13-4 19 0z m-98 428l63-378-409 237 96 39 246-183-136 228z"/>
    </symbol>
  
    <symbol id="icon-map-pin-streamline" viewBox="0 0 512 512">
      <path d="m256 0c-94 0-171 77-171 171c0 90 156 316 162 326l9 12l9-12c6-10 162-236 162-326c0-94-77-171-171-171z m0 472c-33-50-149-229-149-301c0-83 67-150 149-150c82 0 149 67 149 150c0 72-116 251-149 301z m0-376c-41 0-75 33-75 75c0 41 34 74 75 74c41 0 75-33 75-74c0-42-34-75-75-75z m0 128c-29 0-53-24-53-53c0-30 24-54 53-54c29 0 53 24 53 54c0 29-24 53-53 53z"/>
    </symbol>
  
    <symbol id="icon-phone" viewBox="0 0 512 512">
      <path d="m287 287c56-56 76-91 61-106c0 0-4-4-4-4c-11-10-18-18-21-24c-4-7-5-16-2-28c2-12 10-27 25-45c6-8 13-15 19-20c5-5 11-8 17-8c7-1 12-1 16-1c4 0 9 2 15 7c6 4 10 7 12 9c2 2 7 6 13 13c7 7 10 10 11 11c16 17 15 50-3 99c-18 50-53 100-104 151c-52 51-102 86-152 105c-49 19-82 20-98 4c-1-1-5-5-12-12c-7-7-12-11-13-13c-1-1-4-5-9-12c-5-6-7-12-7-16c1-4 1-9 1-15c1-6 3-12 8-18c5-6 11-12 19-19c15-12 27-20 36-24c10-4 19-5 28-1c9 4 15 7 18 9c3 3 10 9 20 19c15 15 50-5 106-61"/>
    </symbol>
  
    <symbol id="icon-facebook" viewBox="0 0 512 512">
      <path d="m384 3l0 76-45 0c-17 0-28 3-33 10-6 7-9 17-9 31l0 54 84 0-11 85-73 0 0 216-87 0 0-216-73 0 0-85 73 0 0-62c0-36 10-63 29-83 20-19 47-29 80-29 28 0 49 1 65 3z"/>
    </symbol>
  
    <symbol id="icon-twitter" viewBox="0 0 512 512">
      <path d="m481 117c-13 18-28 34-46 47 0 3 0 7 0 12 0 25-3 50-11 74-7 25-18 49-33 71-14 23-32 43-52 61-21 17-45 31-74 41-29 11-60 16-92 16-52 0-99-14-142-42 7 1 14 2 22 2 43 0 81-14 115-40-20 0-38-6-54-18-16-12-27-27-33-46 7 1 13 2 18 2 8 0 16-1 24-4-21-4-39-15-53-31-14-17-21-37-21-59l0-1c13 7 27 11 42 11-13-8-23-19-30-32-8-14-11-29-11-44 0-17 4-33 12-47 23 28 51 51 84 68 33 17 69 27 107 29-2-8-3-15-3-22 0-25 9-47 27-65 18-18 40-27 66-27 26 0 49 10 67 29 21-4 40-11 59-22-7 22-21 39-41 51 18-2 35-7 53-14z"/>
    </symbol>
  
    <symbol id="icon-dribbble" viewBox="0 0 512 512">
      <path d="m329 429c-8-46-21-94-40-143l0 0-1 1c-3 1-7 2-12 4-5 2-15 7-29 14-14 8-27 15-39 24-12 8-25 19-38 32-13 14-22 28-29 43l-4-3c35 28 74 42 119 42 25 0 50-5 73-14z m-53-174c-4-9-9-20-15-32-59 18-123 27-192 27 0 1 0 3 0 6 0 24 4 46 12 68 9 21 20 40 36 57 9-17 21-33 35-47 14-15 27-27 41-36 13-9 25-17 37-23 12-7 21-11 28-14l11-4c1 0 2 0 4-1 1 0 3 0 3-1z m-30-60c-23-41-46-77-70-108-26 12-49 30-67 53-18 23-30 49-36 77 57 0 115-7 173-22z m195 91c-40-12-79-14-117-9 17 46 29 91 37 134 21-14 39-32 53-54 14-22 23-45 27-71z m-230-212c0 0 0 0 0 0 0 0 0 0 0 0z m169 41c-36-31-77-46-124-46-14 0-29 1-44 5 25 32 48 69 70 109 13-5 26-11 37-17 12-7 21-13 28-18 6-5 13-10 18-16 6-6 10-10 11-12z m63 139c0-44-14-83-42-117l0 0c-2 2-4 5-6 7-2 3-6 7-12 13-7 6-13 12-21 17-7 6-16 12-28 19-12 7-25 13-38 18 5 10 9 19 13 27 0 1 1 3 2 5 1 2 1 4 2 5 7-1 14-2 21-2 7 0 14-1 21-1 7 0 13 1 20 1 6 0 12 1 18 1 6 0 11 1 16 2 5 0 10 1 14 1 4 1 8 2 10 2 3 1 6 1 8 1z m32 2c0 40-9 77-29 110-20 34-46 60-80 80-33 20-70 29-110 29-40 0-77-9-110-29-34-20-60-46-80-80-20-33-29-70-29-110 0-40 9-77 29-110 20-34 46-60 80-80 33-20 70-29 110-29 40 0 77 9 110 29 34 20 60 46 80 80 20 33 29 70 29 110z"/>
    </symbol>
  
    <symbol id="icon-instagram" viewBox="0 0 512 512">
      <path d="m426 407l0-185-39 0c4 12 6 25 6 38 0 24-6 46-18 66-13 20-29 36-50 48-21 12-44 18-69 18-37 0-69-13-96-39-27-26-40-57-40-93 0-13 2-26 6-38l-41 0 0 185c0 5 2 10 5 13 4 3 8 5 13 5l305 0c5 0 9-2 13-5 3-3 5-8 5-13z m-81-152c0-23-9-44-26-60-18-17-38-25-63-25-24 0-45 8-62 25-17 16-26 37-26 60 0 24 9 44 26 61 17 16 38 25 62 25 25 0 45-9 63-25 17-17 26-37 26-61z m81-103l0-47c0-5-2-10-6-14-4-4-8-6-14-6l-50 0c-5 0-10 2-14 6-4 4-5 9-5 14l0 47c0 6 1 10 5 14 4 4 9 6 14 6l50 0c6 0 10-2 14-6 4-4 6-8 6-14z m49-59l0 326c0 16-5 29-16 40-11 11-24 16-40 16l-326 0c-16 0-29-5-40-16-11-11-16-24-16-40l0-326c0-16 5-29 16-40 11-11 24-16 40-16l326 0c16 0 29 5 40 16 11 11 16 24 16 40z"/>
    </symbol>
  
    <symbol id="icon-google-plus" viewBox="0 0 512 512">
      <path d="m228 227c0 7 3 14 9 21 7 6 14 13 23 19 8 6 17 13 25 21 9 8 16 18 22 30 7 12 10 25 10 40 0 17-5 34-14 50-14 23-34 40-60 51-27 11-55 16-86 16-25 0-48-4-70-11-22-8-38-21-49-40-7-11-11-24-11-37 0-16 5-30 13-43 9-13 20-24 34-33 25-15 63-25 115-28-6-8-10-15-13-22-3-6-5-13-5-20 0-7 2-15 6-25-8 1-15 1-19 1-28 0-52-9-71-27-20-19-29-42-29-70 0-16 3-31 10-45 7-15 16-28 28-38 15-12 32-22 52-28 21-6 41-9 63-9l119 0-39 25-38 0c14 12 25 25 32 38 7 13 11 29 11 46 0 14-2 26-7 37-5 11-10 20-17 26-6 7-13 13-20 19-6 6-12 11-17 18-4 6-7 12-7 18z m-41-27c7 0 14-2 22-5 7-3 14-7 19-12 10-11 15-26 15-46 0-11-2-23-5-35-3-13-8-25-14-37-6-12-14-22-24-30-10-8-21-12-33-12-8 0-16 2-24 6-8 4-14 9-19 15-9 11-13 26-13 46 0 8 1 18 3 28 2 9 5 19 9 29 4 10 9 19 15 26 5 8 13 15 21 20 8 5 18 7 28 7z m0 249c11 0 22-1 32-3 10-3 20-6 28-11 9-5 16-12 21-21 5-9 8-20 8-31 0-5-1-10-2-14-1-5-3-9-4-12-2-4-4-8-8-12-4-5-6-8-8-10-2-2-6-6-11-10-6-5-9-7-11-8-1-2-5-4-12-9-6-5-9-7-10-7-3-1-8-1-14-1-10 0-20 1-30 2-10 1-20 4-30 7-11 4-20 8-28 13-8 6-15 13-20 22-5 8-7 18-7 30 0 13 3 25 10 35 6 10 15 18 26 24 10 5 22 10 34 12 12 3 24 4 36 4z m232-250l60 0 0 31-60 0 0 63-30 0 0-63-61 0 0-31 61 0 0-62 30 0z"/>
    </symbol>
  
    <symbol id="icon-youtube-play" viewBox="0 0 512 512">
      <path d="m366 256c0-7-3-12-9-15l-146-92c-6-4-12-4-19 0-6 3-9 8-9 16l0 182c0 8 3 13 9 16 3 2 6 3 9 3 4 0 7-1 10-3l146-92c6-3 9-8 9-15z m146 0c0 18 0 33 0 43 0 10-1 23-3 39-1 16-3 30-6 42-3 14-10 26-20 35-10 10-22 15-35 17-43 4-106 7-192 7-86 0-149-3-192-7-13-2-25-7-35-17-10-9-17-21-20-35-3-12-5-26-6-42-2-16-3-29-3-39 0-10 0-25 0-43 0-18 0-33 0-43 0-10 1-23 3-39 1-16 3-30 6-42 3-14 10-26 20-35 10-10 22-15 35-17 43-4 106-7 192-7 86 0 149 3 192 7 13 2 25 7 35 17 10 9 17 21 20 35 3 12 5 26 6 42 2 16 3 29 3 39 0 10 0 25 0 43z"/>
    </symbol>
  
</svg>
